<svg xmlns="http://www.w3.org/2000/svg" width="85.618" height="77.753"><path d="M52.358 23.718a1.036 1.036 0 00.4.971c.283.2.85.04 1.012.405.121.566-1.052.971-1.376 1.012a6.691 6.691 0 01-3.682-.405c-.607-.283-1.012-.485-1.133-1.133-.122-.567.323-1.093.606-1.457a3.392 3.392 0 013.075-1.255 1.517 1.517 0 011.052.607 2.623 2.623 0 01.04 1.255" fill="#44caa5"/><path d="M72.549-.001h-59.48A13.091 13.091 0 000 13.073V64.68a13.091 13.091 0 0013.069 13.073h59.48A13.091 13.091 0 0085.618 64.68V13.073A13.091 13.091 0 0072.549-.001m-.283 33.756a4.261 4.261 0 01-1.618 3.319l-5.705 3.683a4.341 4.341 0 01-2.954.891l-17.116-.891s-.769.008-1.736-.008c-.328 0-.679-.012-1.028-.025-.069-.239-.137-.477-.214-.72-.894-2.971-2.137-6.436-3.658-10.459a107.166 107.166 0 01-3.763-13.235l-.033.021.033.02a27.553 27.553 0 001.3 13.438c.857 2.283 1.922 5.383 2.776 8.54.186.676.36 1.36.518 2.036.287 1.206.526 2.4.7 3.529.643 4.181.364 7.553-2.011 7.953-5.1.85-12.219-2.347-16.347-5.585-1.072-.85-2-1.486-2.8-2.028-2.286-1.538-3.5-2.3-3.831-5.055-.446-3.724 1.861-9.633 1.861-9.633a27.848 27.848 0 011.287-3.015 25.988 25.988 0 012.355-3.906c1.274-1.729 4.3-5.416 7.66-7.152a9.14 9.14 0 011.743-.7 4.1 4.1 0 011.715-.364h14.524a8.008 8.008 0 016.029 2.55c1.7 1.862 2.59 4.776 4.9 6.031 1.659.891 3.682.688 5.5.728 1.982.081 3.965.243 5.947.365a6.3 6.3 0 01.85.162 4.584 4.584 0 00-.81.728c-.283.365-.728.891-.606 1.457.121.648.526.85 1.133 1.134a6.36 6.36 0 003.358.445c0 .122 0 .2.04.243zm-33.18 34.122s-17.519 3.36-28.04-14.978l5.154-5.911.186.125a33 33 0 012.752 1.943c5.826 4.614 12.422 6.517 16.994 6.517a10.1 10.1 0 002.225-.2 5.9 5.9 0 004.208-2.955c1.125-1.931 1.182-4.63.4-8.33a44.47 44.47 0 001.829.033l1.829.1c-1.886 7.5-7.534 23.662-7.534 23.662" fill="#44caa5"/></svg>