<svg xmlns="http://www.w3.org/2000/svg" xmlns:xlink="http://www.w3.org/1999/xlink" width="541.344" height="376.858"><defs><clipPath id="b"><path fill="none" d="M0 0h541.344v376.858H0z"/></clipPath><clipPath id="c"><path d="M350.786 289.236c48.7 12.152 188.021 47.126 286.79 73.949-16.2-41.769-130.318-74.137-268.7-74.137q-9.121 0-18.093.187" transform="translate(-350.786 -289.049)" fill="none"/></clipPath><clipPath id="d"><path d="M0 399.146c0 46.594 121.185 84.365 270.672 84.365q6.35 0 12.629-.092c-108.6-48.7-228.6-87.5-276.993-102.462C2.18 386.815 0 392.9 0 399.146" transform="translate(0 -380.957)" fill="none"/></clipPath><clipPath id="f"><path fill="none" d="M0 0h22.656v10.631H0z"/></clipPath><clipPath id="g"><path fill="none" d="M0 0h25.45v9.515H0z"/></clipPath><clipPath id="h"><path fill="none" d="M0 0h44.378v13.057H0z"/></clipPath><clipPath id="i"><path fill="none" d="M0 0h17.434v20.722H0z"/></clipPath><clipPath id="j"><path fill="none" d="M0 0h63.179v43.405H0z"/></clipPath><clipPath id="k"><path fill="none" d="M0 0h5.825v3.638H0z"/></clipPath><clipPath id="l"><path fill="none" d="M0 0h15.812v53.623H0z"/></clipPath><clipPath id="m"><path fill="none" d="M0 0h53.299v54.143H0z"/></clipPath><clipPath id="n"><path fill="none" d="M0 0h35.424v53.566H0z"/></clipPath><clipPath id="o"><path fill="none" d="M0 0h49.128v20.052H0z"/></clipPath><clipPath id="p"><path fill="none" d="M0 0h65.806v43.252H0z"/></clipPath><clipPath id="q"><path fill="none" d="M0 0h33.804v16.077H0z"/></clipPath><clipPath id="r"><path fill="none" d="M0 0h27.085v46.215H0z"/></clipPath><clipPath id="s"><path fill="none" d="M0 0h97.294v92.539H0z"/></clipPath><clipPath id="t"><path fill="none" d="M0 0h7.781v15.36H0z"/></clipPath><clipPath id="u"><path fill="none" d="M0 0h27.975v11.439H0z"/></clipPath><clipPath id="v"><path fill="none" d="M0 0h14.352v11.125H0z"/></clipPath><linearGradient id="a" x1="-.881" y1="2.276" x2="-.878" y2="2.276" gradientUnits="objectBoundingBox"><stop offset="0" stop-color="#fff"/><stop offset="1" stop-color="#caccce"/></linearGradient><linearGradient id="e" x1="0" y1="1" x2=".003" y2="1" xlink:href="#a"/></defs><g clip-path="url(#b)"><g clip-path="url(#b)"><path d="M541.345 292.492c0 46.594-121.184 84.365-270.672 84.365S0 339.086 0 292.492s121.184-84.365 270.672-84.365 270.672 37.772 270.672 84.365" fill="#b2b4b7"/><path d="M221.747 329.54l-22.822 7.632-26.484-10.058 22.927-7.291zm51.477 1.585l-24.111 8.5-27.366-10.081 24.269-8.116zm-6.233-16.715l-20.975 7.014-26.25-9.361 21.1-6.711z" fill="#fff"/><path d="M316.211 315.986l-22.164 7.807-27.058-9.383 22.344-7.472zm-7.533-15.52l-19.343 6.468-25.967-8.738 19.489-6.2zm47.152 1.566l-20.444 7.2-26.705-8.761 20.638-6.9zm-8.618-14.447l-17.9 5.984-25.651-8.188 18.053-5.741zm45.249 1.545l-18.917 6.663-26.332-8.207 19.121-6.395zm-9.524-13.491l-16.6 5.552-25.31-7.69 16.771-5.333zm43.493 1.525l-17.555 6.183-25.939-7.71 17.766-5.941z" fill="#fff"/><path d="M266.991 314.41l-20.975 7.014-26.25-9.361 21.1-6.711z" fill="#fff"/><path d="M316.211 315.986l-22.164 7.807-27.058-9.383 22.344-7.472zm-7.533-15.52l-19.343 6.468-25.967-8.738 19.489-6.2zm47.152 1.566l-20.444 7.2-26.705-8.761 20.638-6.9zm-8.618-14.447l-17.9 5.984-25.651-8.188 18.053-5.741zm45.249 1.545l-18.917 6.663-26.332-8.207 19.121-6.395zm-9.524-13.491l-16.6 5.552-25.31-7.69 16.771-5.333zm43.493 1.525l-17.555 6.183-25.939-7.71 17.766-5.941z" fill="#fff"/><path d="M416.149 264.533l-15.447 5.165-24.952-7.241 15.62-4.968z" fill="#fff"/><path d="M458.018 266.038l-16.334 5.753-25.535-7.258 16.546-5.536zm-180.446 84.067l-22.534 8.378-28.618-10.868 22.693-7.993zm53.268 1.572l-23.7 9.319-29.565-10.891 23.923-8.894zm-8.702-18.14l-20.643 7.674-28.272-10.083 20.823-7.334zm50.853 1.565l-21.717 8.54-29.136-10.105 21.957-8.163zm-9.916-16.785l-18.98 7.056-27.883-9.387 19.174-6.754zm48.647 1.555l-19.971 7.854-28.676-9.408 20.223-7.519z" fill="#fff"/><path d="M400.808 304.291l-17.511 6.51-27.468-8.768 17.719-6.242z" fill="#fff"/><path d="M447.431 305.831l-18.429 7.246-28.2-8.787 18.686-6.947zm-11.732-14.513l-16.205 6.025-27.034-8.213 16.415-5.782zm44.762 1.525l-17.058 6.707-27.7-8.232 17.318-6.439zm-158.323 40.694l-20.643 7.674-28.272-10.083 20.823-7.334zm50.853 1.565l-21.717 8.54-29.136-10.105 21.957-8.163zm-9.916-16.785l-18.98 7.056-27.883-9.387 19.174-6.754zm48.647 1.555l-19.971 7.854-28.676-9.408 20.223-7.519z" fill="#fff"/><path d="M400.808 304.291l-17.511 6.51-27.468-8.768 17.719-6.242z" fill="#fff"/><path d="M447.431 305.831l-18.429 7.246-28.2-8.787 18.686-6.947zm-11.732-14.513l-16.205 6.025-27.034-8.213 16.415-5.782zm44.762 1.525l-17.058 6.707-27.7-8.232 17.318-6.439z" fill="#fff"/><path d="M468.059 279.288l-15.04 5.592-26.588-7.716 15.254-5.373zm43.041 1.507l-15.834 6.226-27.207-7.733 16.1-5.984z" fill="#fff"/><path d="M244.035 208.532l297.208 81.661c-3.911-45.531-123.551-82.066-270.571-82.066q-13.483 0-26.637.4" fill="#ffc50c"/></g><g clip-path="url(#c)" transform="translate(252.579 208.126)"><path fill="url(#a)" d="M0 0h286.79v74.137H0z"/></g><g clip-path="url(#b)"><path d="M315.051 82.558l-14.728 139.806-3.73-1.144L308.68 82.558zM30.658 118.14L69.29 291.999l5.153-1.089L36.54 115.804z" fill="#656668"/><path d="M297.838 376.437c-130-59.248-255.41-95.935-289.06-105.331C3.052 277.936 0 285.103 0 292.49c0 46.594 121.185 84.365 270.672 84.365q13.753 0 27.166-.42" fill="#ffc50c"/></g><g clip-path="url(#d)" transform="translate(0 274.303)"><path fill="url(#e)" d="M0 0h283.302v102.554H0z"/></g><g clip-path="url(#b)"><path d="M130.091 364.599c40.974 7.777 89.1 12.258 140.581 12.258q6.351 0 12.63-.092c-14.261-6.4-28.719-12.618-43.185-18.64-27.824-.038-68.067 1.131-110.026 6.475m-24.257-57.497a745.744 745.744 0 00-95.538 8.515c9.277 10.166 24.519 19.549 44.469 27.76 54.7-9.543 97.995-10.919 121.19-10.747-24.534-9.324-48.236-17.886-70.122-25.527m-75.176-25.141a2566.9 2566.9 0 00-24.348-7.66 35.016 35.016 0 00-5.354 11.066c7.778-1.162 17.856-2.432 29.7-3.406m508.714.3a41.6 41.6 0 00-8.126-12.658c-10.534.706-21.168 1.59-30.112 2.4 13.2 3.506 26.029 6.946 38.238 10.262m-94.598-54.369a510.594 510.594 0 00-85.435 7.331 18588.952 18588.952 0 0163.862 16.378c30.486-3.469 61.266-3.826 77.251-3.719-15.107-7.545-33.934-14.29-55.678-19.99M317.355 91.448C221.298 74.34 122.182 85.859 26.486 125.6Q16.104 79.9 5.722 34.189C116.189-4.14 221.831-10.5 329.352 16.407c-4.359 25.359-6.851 49.305-12 75.041"/><path d="M57.899 95.42q-4.334-28.607-8.684-57.355a630.607 630.607 0 0139.006-9.552c.52 5.085.779 7.623 1.3 12.689a347.99 347.99 0 00-19.156 4.547l1.133 8.913c6.813-1.866 10.24-2.727 17.133-4.312l1.318 12.618c-6.767 1.676-10.132 2.581-16.819 4.533q1.367 10.812 2.735 21.591a323.384 323.384 0 00-17.967 6.328m38.725-12.39q-2.691-27.46-5.407-55.091a371.383 371.383 0 0120.451-3.391q1.926 27.036 3.83 53.892a355.203 355.203 0 00-18.874 4.59m21.695-5.202q-1.787-26.764-3.6-53.709a421.103 421.103 0 0122.7-2.575q4.883 10.306 9.666 20.667l-.485-21.421c7.1-.557 14.275-.943 21.461-1.159q-.226 25.269-.447 50.338c-6.889.714-13.755 1.6-20.527 2.651q-5.127-11.567-10.378-23.063l.935 24.572c-6.5 1.069-12.964 2.3-19.328 3.7m52.245-8.173q.339-24.964.685-50.128a486.71 486.71 0 0121.674-.258q-1.162 24.444-2.3 48.681a440.63 440.63 0 00-20.062 1.705m35.998-2.542c-4.29.173-7.468-.393-9.561-1.772s-3.017-3.812-2.753-7.293l.444-8.48c7.225-.28 14.517-.4 21.817-.361l-.286 3.184c-.194 2.159.585 3.229 2.339 3.219a2.745 2.745 0 002.123-.811 4.69 4.69 0 00.918-2.69 9.878 9.878 0 00.048-1.74 2.509 2.509 0 00-.39-1.2 2.9 2.9 0 00-1.026-.9 11.206 11.206 0 00-1.877-.791c-5.78-2.015-8.688-3.013-14.535-4.99-3.386-1.145-5.668-2.374-6.762-3.7a7.959 7.959 0 01-1.506-5.629l.266-5.05a7.632 7.632 0 013.846-6.531c2.424-1.45 5.96-2.115 10.591-1.969 7.692.207 15.439.579 23.186 1.108 4.709.3 8.172 1.267 10.368 2.823a6.184 6.184 0 012.718 6.344 7961.45 7961.45 0 00-.726 5.144c-7.536-.5-15.07-.855-22.553-1.056l.055-.546q.306-3.066-2.582-3.165a2.977 2.977 0 00-1.974.561 2.181 2.181 0 00-.87 1.6 2.7 2.7 0 00.042.871 1.433 1.433 0 00.481.711 5.762 5.762 0 001.127.734 17.4 17.4 0 002.02.854c6.876 2.6 10.29 3.911 17.067 6.547a11.95 11.95 0 012.668 1.463 5.838 5.838 0 011.658 1.913 6.478 6.478 0 01.7 2.62 17.18 17.18 0 01-.177 3.55c-.269 1.927-.4 2.891-.672 4.819-.613 3.793-2.087 6.408-4.406 7.877s-5.752 2.2-10.335 2.231c-7.193.014-14.376.18-21.492.5m37.906-.426q3.222-22.231 6.534-44.667 11.221.922 22.516 2.246c-1.114 5.818-1.67 8.731-2.777 14.568 2.253.2 3.38.309 5.635.528 1.164-5.78 1.747-8.665 2.917-14.425q11.35 1.312 22.76 2.995-5.162 20.618-10.152 41.044-10.605-.863-21.16-1.373c1.468-7.424 2.2-11.127 3.684-18.519a655.109 655.109 0 00-5.541-.433c-1.408 7.462-2.11 11.2-3.507 18.691a578.342 578.342 0 00-20.908-.654" fill="#fff"/></g><g clip-path="url(#b)"><path d="M282.665 101.853c-16.163-7.9-23.791 8-29.483 15.538-13.35 17.688-4.28 21.356 8.054 25.722 5.12 1.812 18.9 3.723 18.9 3.723s2.6-18.527 3.875-30.669c0 0 1.9-12.891-1.341-14.315M108.392 264.037s.3 18.514 18.678 17.7c13.56 9.408 24.7 0 24.7 0 7.541 4.29 18.259-2.036 18.617-12.575a32.751 32.751 0 01-2.6-6.8c-7.612 7.412-38.925 16.73-59.4 1.68" fill="#44caa5"/><g clip-path="url(#f)" transform="translate(132.379 275.287)"><path d="M15.736 6.688a45.132 45.132 0 01-8.049 3.936A19.991 19.991 0 01.001 9.286 43.8 43.8 0 0022.657 0a25.959 25.959 0 01-6.921 6.688" fill="#2b1c16"/></g><g clip-path="url(#g)" transform="translate(108.392 264.036)"><path d="M25.45 8.027a64.775 64.775 0 01-23.125.847A22.951 22.951 0 01-.001.002c7.58 5.577 16.649 7.806 25.45 8.026" fill="#2b1c16"/></g><g clip-path="url(#h)" transform="translate(112.938 268.179)"><path d="M31.05 3.749a1.5 1.5 0 00.643-.543 64.195 64.195 0 0012.685-3.2c-8.6 9.144-20.746 14.423-33.644 12.75a48.8 48.8 0 01-7.06-1.493A14.576 14.576 0 010 8.129c10.533 1 21.063.148 31.05-4.375" fill="#2b1c16"/></g><g clip-path="url(#i)" transform="translate(152.955 262.357)"><path d="M10.342 3.141A20.79 20.79 0 0014.834 0a32.75 32.75 0 002.6 6.8C17.095 16.8 7.428 22.994 0 19.931c5.373-4.381 9.476-10.1 10.342-16.795" fill="#c4f7e8"/></g><path d="M167.788 262.356a32.751 32.751 0 002.6 6.8c2.9 5.616 6.976 9.034 10.443 9.584-3-9.054-3.25-26.837.876-38.908 10.01-29.383 40.162-32.168 46.2-15.793s-4.42 40.084-22.107 48.93c0 0 3.977-.472 9.041-.529h.026c11.476-1.06 23.3-6.036 33.758-12.686a105.272 105.272 0 0022.652-19.276 65.041 65.041 0 004.836-6.242 19.718 19.718 0 01-11.66.575s-6.627-14.792 1.958-20.744q2.447-1.7 4.775-3.334c-18.552-9.041-44.161-8.446-52.539-29.2-48.6 31.793-55.616 62.656-50.856 80.813" fill="#44caa5"/><g clip-path="url(#j)" transform="translate(212.932 229.084)"><path d="M49.703 0a32.587 32.587 0 001.816 5.732 19.713 19.713 0 0011.66-.575 65.045 65.045 0 01-4.836 6.242 105.272 105.272 0 01-22.652 19.276C25.238 37.325 13.409 42.301 1.933 43.36h-.026c-.653.006-1.293.019-1.907.045C17.483 32.019 34.385 22.856 49.7 0" fill="#201510"/></g><g clip-path="url(#k)" transform="translate(205.798 269.335)"><path d="M3.876 3.309c-2.352.156-3.877.33-3.877.33A37.085 37.085 0 005.825.001Q4.817 1.639 3.877 3.31" fill="#2b1c16"/></g><g clip-path="url(#l)" transform="translate(174.173 225.122)"><path d="M15.812 0a43.611 43.611 0 00-8.278 14.715c-4.126 12.071-3.87 29.853-.875 38.907a12.079 12.079 0 01-6.449-3.9c-.071-.446-.143-.885-.21-1.318" fill="#c4f7e8"/></g><g clip-path="url(#m)" transform="translate(217.885 181.542)"><path d="M46.565 53.271a23.18 23.18 0 003.874.556c-7.2 1.286-14.339-1.169-13.541-11.276.7-8.917.678-15.618-8.811-19.095C17.237 19.475 5.387 11.056 0 .516.258.342.5.173.76-.001c8.378 20.749 33.986 20.155 52.539 29.2q-2.331 1.638-4.775 3.335c-8.584 5.951-1.958 20.743-1.958 20.743" fill="#c4f7e8"/></g><path d="M181.707 239.837c-4.126 12.071-3.871 29.854-.876 38.908a17.311 17.311 0 001.144 2.772c16.513 5.312 55.957 5.176 53.96-2.52-1.5-5.738-12.755-6.669-21.072-6.552h-.026c-5.063.058-9.041.529-9.041.529 17.687-8.846 28.129-32.542 22.107-48.93s-36.187-13.589-46.2 15.793" fill="#00b284"/><path d="M215.487 285.142a9.415 9.415 0 01-.982-.653c-5.587-4.3.769-7.871 3.412-9.079a34.612 34.612 0 016.753-2.475c5.512.743 10.323 2.449 11.266 6.061 1.011 3.9-8.581 5.848-20.449 6.146" fill="#44caa5"/><g clip-path="url(#n)" transform="translate(194.191 214.069)"><path d="M17.326 14.879C13.08 9.567 7.054 6.924.001 6.924c12.791-10.559 29.4-8.646 33.711 3.05 5.05 13.745-1.489 32.634-14.162 43.593 5.552-12.924 5.729-27.328-2.225-38.688" fill="#2b1c16"/></g><path d="M226.625 246.919c1.027-12.478-6.776-27.1-18.01-32.581 8.656-1.28 16.517 2.19 19.289 9.705 2.895 7.877 1.977 17.428-1.712 26.21.194-1.105.342-2.216.433-3.335" fill="#0ec092"/><path d="M217.759 179.074c.261.846.559 1.68.886 2.468 8.378 20.749 33.987 20.155 52.539 29.2 7.169-4.988 13.573-9.409 18.63-11.7a136.792 136.792 0 00-8.782-52.198c25.363-1.376 35.663-17.841 33.815-25.62-2.038-3-8.81.9-7.3-3.311a10.745 10.745 0 011.68-3.066l-.181-.139c-7.586-3.225-19.874.5-19.874.5a26.621 26.621 0 00-8.724-8.99 25.272 25.272 0 00-5.883-2.766c-4.772-1.539-12.747-3.836-20.171-1.617-23.2 6.922-9.813 28.74-9.813 28.74s-17.473 25.008-26.814 48.5" fill="#44caa5"/><g clip-path="url(#o)" transform="translate(235.341 138.45)"><path d="M0 6.452A349.377 349.377 0 014.016 0c12.478 8.543 28.177 12.972 43.6 13.9a134.993 134.993 0 011.508 4.911C31.896 22.617 13.35 17.467-.003 6.456" fill="#c4f7e8"/></g><g clip-path="url(#p)" transform="translate(249.248 100.911)"><path d="M10.359 30.393C4.55 23.363-.355 12.773.02 2.983A27.852 27.852 0 015.138.92c7.424-2.218 15.4.079 20.171 1.617a25.3 25.3 0 015.883 2.766 26.626 26.626 0 018.724 8.99s12.287-3.72 19.874-.5l.181.139a10.765 10.765 0 00-1.68 3.066c-1.506 4.215 5.266.307 7.3 3.312 1.425 6-4.384 17.152-18.739 22.583-13.108 1.57-27.784-1.968-36.5-12.5" fill="#2b1c16"/></g><g clip-path="url(#q)" transform="translate(256.056 194.661)"><path d="M2.633 8.975c6.148-3.419 12.678-6.6 19.651-7.936a66.519 66.519 0 0111.519-1.04c.006 1.506-.007 2.967-.045 4.375-5.057 2.294-11.461 6.714-18.63 11.7A99.645 99.645 0 00.001 10.536a67.298 67.298 0 012.633-1.564" fill="#c4f7e8"/></g><g clip-path="url(#r)" transform="translate(262.738 146.84)"><path d="M18.405.347a136.63 136.63 0 018.675 44.85C-18.861 54.657 4.551-5.062 18.405.347" fill="#2b1c16"/></g><g clip-path="url(#s)" transform="translate(217.759 100.92)"><path d="M26.814 29.65S16.2 12.33 30.314 3.658a1.3 1.3 0 01.145-.087c.485-.3 1-.577 1.542-.845.11-.057.213-.117.326-.165q.761-.366 1.606-.7c.152-.063.294-.13.449-.189.711-.27 1.451-.529 2.246-.761a19.21 19.21 0 012.058-.5c.061-.012.123-.026.181-.036a21.912 21.912 0 011.977-.268l.261-.026a28.273 28.273 0 011.925-.084h.294c.633 0 1.256.021 1.881.063a.992.992 0 01.122.005h-.01c.23.018.462.028.695.049 8.085 3.216 14.2 8.714 20.323 15.852a25.688 25.688 0 015.609-1.845c2.452-.667 12.691-3.16 19.334-.341l.181.139a10.745 10.745 0 00-1.68 3.066c-1.506 4.215 5.266.307 7.306 3.312 1.289 5.439-3.358 15.106-14.924 20.916-8.856 2.992-17.6 4.762-20.921-1.05-.443-47.637-29.819-20.227-29.654-8.7.207 14.159-10.662 23.434-21.687 61.069A28.3 28.3 0 01.885 80.617a28.292 28.292 0 01-.886-2.469c9.341-23.5 26.814-48.5 26.814-48.5" fill="#c4f7e8"/></g><g clip-path="url(#t)" transform="translate(240.974 120.428)"><path d="M7.469 7.928A14.043 14.043 0 01.102 15.36c2.146-3.29 3.5-5.218 3.5-5.218A30.182 30.182 0 01.002 0c2.524 1.218 5.06 2.475 7.684 3.638.31 1.58-.213 3.463-.213 4.291" fill="#c4f7e8"/></g><g clip-path="url(#u)" transform="translate(281.244 113.394)"><path d="M.016 9.955c-.274-1.49 2.834-6.456 7.347-8.013.349-.1.7-.189 1.1-.287 2.452-.667 12.691-3.16 19.335-.341l.18.139c-.655.82-1.492 4.136-1.9 5.233C22.64 8.003.795 14.244.016 9.956" fill="#c4f7e8"/></g><path d="M248.621 259.759v.013s1.974 10.578 6.187 17.215 18.678 5.428 21.379 1.758c2.686-3.664.621-9.3-5.7-8.394-6.333.924-5.124-19.871.788-29.867a105.278 105.278 0 01-22.652 19.276" fill="#44caa5"/><g clip-path="url(#v)" transform="translate(262.974 266.88)"><path d="M3.783 10.727C-2.217 8.75-.254 2.779 3.947 0c.662 2.339 1.825 3.723 3.563 3.471 4.966-.7 7.289 2.6 6.769 5.842-3.208 1.156-7.208 2.494-10.5 1.415" fill="#2b1c16"/></g><path d="M271.274 240.483a33.8 33.8 0 00-3.322 8.316 80.94 80.94 0 00-14.407 25.952 64.488 64.488 0 01-4.924-14.979v-.013a105.282 105.282 0 0022.653-19.276m18.539-41.448c-5.056 2.294-11.461 6.715-18.63 11.7q-2.331 1.638-4.775 3.335c-8.584 5.951-1.958 20.743-1.958 20.743a19.7 19.7 0 0011.66-.575c11.932-4.452 16.239-20.129 16.239-20.129 2.621 12.886 16.689 17.486 20.714 13.474 4.013-4.027 3.612-9.241-1.67-12.059-7.826-4.162-7.167-13.357-12.388-17.266-2.051-1.538-5.208-1.027-9.192.775" fill="#00b284"/><path d="M303.681 205.572c1.593 3.689 3.312 7.612 7.712 9.957 5.283 2.818 5.683 8.033 1.671 12.058-1.758 1.751-5.428 1.861-9.231.356a15.932 15.932 0 01-2.85-2.689c-1.186-5.841-1.486-15.056 2.7-19.683" fill="#0ec092"/><path d="M307.539 117.913c-1.506 4.215 5.266.307 7.3 3.312a8.347 8.347 0 00.207-5.564c-1.483-3.784-4-3.1-5.832-.814a10.727 10.727 0 00-1.679 3.066" fill="#002c1a"/><path d="M309.189 116.632a.824.824 0 101.151-.643.954.954 0 00-1.151.643" fill="#fff"/><path d="M269.707 118.709a15.024 15.024 0 011.431 3.787 4.709 4.709 0 01.029 1.946 1.354 1.354 0 01-1.189 1.13 5.756 5.756 0 01-3.541-1.493 28.654 28.654 0 01-3.012-2.751l-.187.171a8.284 8.284 0 001.961 4.176 7.115 7.115 0 001.877 1.635 5.124 5.124 0 003.208.788 3.79 3.79 0 002.252-1.111 3.937 3.937 0 00.976-1.984 5.1 5.1 0 00-.385-2.914 6.848 6.848 0 00-3.2-3.506zm12.358-7.819a10.581 10.581 0 011.509 2.892c.135.5.113 1.065-.271 1.225a2.012 2.012 0 01-1.435-.139 9.325 9.325 0 01-2.733-1.735 21.8 21.8 0 01-2.288-2.393l-.2.15a6.261 6.261 0 001.138 3.746 6.663 6.663 0 003.188 2.612 5.81 5.81 0 001.334.318 3.7 3.7 0 002.074-.4 3 3 0 001.109-1.066 2.768 2.768 0 00.378-1.251 3 3 0 00-.33-1.585 4.855 4.855 0 00-3.267-2.525z" fill="#002c1a"/><path d="M239.051 133.831c19.8 18.262 46.555 16.43 46.555 16.43l.343 7.386c-32.843.723-49.935-17.926-49.935-17.926z" fill="#fdc300"/><path d="M249.65 110.662c-14.914-10.061-24.669 4.626-31.351 11.307-15.669 15.67-7.195 20.558 4.416 26.59 4.819 2.5 18.2 6.3 18.2 6.3s5.14-17.988 8.084-29.836c0 0 3.667-12.5.653-14.363" fill="#44caa5"/></g></g></svg>