<svg version="1.2" baseProfile="tiny-ps" xmlns="http://www.w3.org/2000/svg" width="812" height="594"><defs><clipPath clipPathUnits="userSpaceOnUse" id="cp1"><path d="M0 0h810.55v592.89H0V0z"/></clipPath><clipPath clipPathUnits="userSpaceOnUse" id="cp2"><path d="M0 0h810.55v592.9H0V0z"/></clipPath><clipPath clipPathUnits="userSpaceOnUse" id="cp3"><path d="M165.31 2.39h156.98v105.93H165.31V2.39z"/></clipPath><clipPath clipPathUnits="userSpaceOnUse" id="cp4"><path d="M8.85 291.55h69.88v116.58H8.85V291.55z"/></clipPath><clipPath clipPathUnits="userSpaceOnUse" id="cp5"><path d="M479.44 12.41c33.61 8.64 58.95 38.68 79.44 69.26 17.74 26.47 34.09 53.12 56.02 75.69 23.32 23.98 42.03 19.3 72.64 14.47 7.2-1.11 14.48-1.65 21.77-1.6 7.29.05 14.56.67 21.75 1.87 7.19 1.2 14.27 2.97 21.18 5.3 6.91 2.33 13.62 5.2 20.07 8.59 11.66 6.1 22.92 14.24 29.89 26.2.19.33.38.66.56.99 7.77 14.03 8.89 31.53 6.97 47.88-7 59.56-50.49 106.99-98.84 134.76-12.91 7.42-26.84 14.25-35.7 26.98-5.77 8.29-8.7 17.93-10.48 28.15-1.62 9.28-2.28 19.03-3.3 28.66a166.448 166.448 0 01-1.08 8.97c-.22 1.49-.45 2.98-.71 4.46-.26 1.48-.53 2.96-.82 4.44-11.91 56.96-67.93 91.14-120.89 94.93-4.61.33-9.21.5-13.79.49h-.4c-48.03-.04-95.17-16.79-142.32-28.4-111.39-27.43-228.91-27.05-335.38-72.36-11.99-5.1-24.96-12.08-29.4-25.36-5.11-15.29 3.62-32.26 14.88-42.83.96-.88 1.93-1.75 2.92-2.61.99-.85 1.98-1.7 2.99-2.52 1.01-.83 2.03-1.64 3.07-2.43 1.03-.8 2.08-1.58 3.14-2.34 20.14-14.85 43.67-27.37 45.97-52.72.85-9.4-1.74-18.77-4.97-27.52-1.7-4.63-3.6-9.19-5.69-13.66-2.09-4.47-4.38-8.85-6.84-13.12-2.47-4.27-5.12-8.44-7.95-12.48-2.83-4.04-5.83-7.97-8.99-11.75-18.95-22.54-44.45-40.99-52.53-70.39a76.52 76.52 0 01-2.46-14.97c-.11-1.69-.16-3.37-.15-5.06v-.44c.03-2.5.15-4.99.35-7.48.21-2.49.5-4.97.88-7.43.38-2.47.85-4.92 1.41-7.35.56-2.43 1.2-4.84 1.93-7.23 11.24-37.78 40.93-67.72 75.47-78.66 2.11-.68 4.25-1.28 6.4-1.8 2.15-.53 4.32-.98 6.51-1.35 2.19-.37 4.38-.67 6.59-.89 2.21-.22 4.42-.36 6.63-.42 36.42-.95 70.47 17.81 104.57 31.94 34.1 14.13 73.63 23.51 105.89 4.86 24.71-14.28 40.01-42.1 59.66-63.93 17.99-19.99 41.61-35.36 66.41-40.41a89.475 89.475 0 018.61-1.33c1.44-.15 2.89-.26 4.34-.34a80.492 80.492 0 019.26.03c1.63.1 3.26.25 4.89.46 1.62.2 3.24.46 4.85.76 1.61.31 3.21.66 4.79 1.07"/></clipPath><clipPath clipPathUnits="userSpaceOnUse" id="cp6"><path d="M0 0h810.55v592.9H0V0z"/></clipPath><clipPath clipPathUnits="userSpaceOnUse" id="cp7"><path d="M0 83.78h664.71V592.9H0V83.78z"/></clipPath><clipPath clipPathUnits="userSpaceOnUse" id="cp8"><path d="M442.7 9.98h360.06v203.2H442.7V9.98z"/></clipPath><clipPath clipPathUnits="userSpaceOnUse" id="cp9"><path d="M15.13 414.03h646.29v178.86H15.13V414.03z"/></clipPath><clipPath clipPathUnits="userSpaceOnUse" id="cp10"><path d="M594.08 86.6h148.3v82.59h-148.3V86.6z"/></clipPath><clipPath clipPathUnits="userSpaceOnUse" id="cp11"><path d="M80.6 0h36.83v38.62H80.6V0z"/></clipPath><clipPath clipPathUnits="userSpaceOnUse" id="cp12"><path d="M748.59 421.89h24.24v25.43h-24.24v-25.43z"/></clipPath></defs><style>.s1{fill:#4388ba}.s3{fill:#d3659b}.s4{fill:#5c5c99}</style><g id="Layer"><g id="Layer"><g id="Clip-Path" clip-path="url(#cp1)"><g id="Layer"><g id="Layer"><g id="Clip-Path" clip-path="url(#cp2)"><g id="Layer"><g id="Layer" opacity=".3"><g id="Clip-Path" clip-path="url(#cp3)"><g id="Layer"><path id="Layer" d="M175.54 63.51c-7.41-9.05-13.59-21.93-8.17-32.39 2.43-4.7 6.81-7.93 11.19-10.72 42-26.77 146.35-32.2 143.69 44.19-2.73 78.4-117.65 34.42-146.71-1.08" fill="#f2dce4"/></g></g></g><g id="Layer" opacity=".8"><g id="Clip-Path" clip-path="url(#cp4)"><g id="Layer"><path id="Layer" class="s1" d="M78.72 346.9c-.88 24.09-15.36 47.09-36.13 57.41-9.05 4.49-21.08 6.14-28.07-1.38-3.23-3.47-4.75-8.34-5.35-13.15a42.63 42.63 0 01-.29-6.68c.08-2.23.34-4.45.77-6.64a42.447 42.447 0 014.59-12.52c3.94-6.97 9.82-12.62 13.32-19.84 7.52-15.52-15.86-54.18 7.17-52.5 21.59 1.57 44.73 34.96 43.99 55.3"/></g></g></g></g></g></g><g id="Layer"><g id="Clip-Path" clip-path="url(#cp5)"><g id="Layer"><path id="Layer" d="M407.12 1018.51l-684.79-716.16 682.46-717.77 684.79 716.16-682.46 717.77z" fill="#44caa5"/></g></g></g><g id="Layer"><g id="Clip-Path" clip-path="url(#cp6)"><g id="Layer"><g id="Layer" opacity=".5"><g id="Clip-Path" clip-path="url(#cp7)"><g id="Layer"><path id="Layer" class="s1" d="M84.61 333.8c-1.7-4.63-3.6-9.19-5.69-13.66-2.09-4.47-4.38-8.85-6.84-13.12-2.47-4.27-5.12-8.44-7.95-12.48-2.83-4.04-5.83-7.96-8.99-11.75C36.19 260.26 10.7 241.8 2.61 212.4c-4.46-16.21-2.83-33.86 1.96-49.96 11.24-37.78 40.93-67.72 75.47-78.66-.98 1.1-1.94 2.24-2.88 3.41-17.02 21.2-23.26 49.94-23.63 77.65-.33 24.75 4.86 51.94 23.34 67.34 10.16 8.46 23.04 12.25 34.65 18.31 47.27 24.66 68.61 92.5 44.61 141.82-12.91 26.54-37.39 53.67-26.76 81.31 7.85 20.43 31.16 28.18 51.73 32.61a765.74 765.74 0 0038.63 7.26 761.88 761.88 0 0038.95 5.27c13.02 1.43 26.08 2.52 39.16 3.28 13.08.76 26.18 1.18 39.28 1.27 23.04.16 46.07-.68 69.04-2.53a793.45 793.45 0 0068.55-8.53 793.99 793.99 0 0067.55-14.47c22.3-5.8 44.33-12.58 66.03-20.3 18.26-6.5 37.26-16.94 56.43-26.51-2.63 15.11-2.76 31.47-5.91 46.53-11.91 56.96-67.93 91.13-120.89 94.93-52.96 3.8-104.73-15.16-156.52-27.91-111.38-27.43-228.91-27.05-335.37-72.37-11.99-5.1-24.96-12.08-29.4-25.36-5.11-15.29 3.62-32.27 14.88-42.83 21.34-20.02 55.29-31.9 58.09-62.62.85-9.4-1.74-18.76-4.97-27.51"/></g></g></g><g id="Layer" opacity=".2"><g id="Clip-Path" clip-path="url(#cp8)"><g id="Layer"><path id="Layer" class="s3" d="M442.7 11.77c3.02-.65 6.08-1.12 9.15-1.42 3.08-.3 6.17-.42 9.26-.37 3.09.05 6.17.28 9.24.69 3.06.41 6.1.99 9.1 1.74 33.61 8.64 58.95 38.68 79.44 69.26 17.74 26.47 34.09 53.12 56.02 75.69 23.32 23.98 42.04 19.3 72.64 14.47 7.2-1.11 14.48-1.65 21.77-1.6 7.29.05 14.56.67 21.75 1.87 7.19 1.2 14.27 2.97 21.18 5.3 6.91 2.33 13.62 5.2 20.07 8.59 11.66 6.09 22.92 14.24 29.89 26.2.19.33.38.66.56.99-10.62-3.57-20.2-7.29-25.78-8.41-32.18-6.46-64.75-.34-97.16-.67-5.79-.06-11.58-.34-17.35-.81-5.77-.48-11.53-1.17-17.25-2.06-5.72-.89-11.41-1.99-17.06-3.3-5.64-1.3-11.24-2.81-16.78-4.51-23.12-7.12-46.2-18.51-60.71-38.69-17.27-24.02-19.66-56.36-33.21-82.89-15.26-29.9-43.54-49.67-74.77-60.06"/></g></g></g><g id="Layer" opacity=".8"><g id="Clip-Path" clip-path="url(#cp9)"><g id="Layer"><path id="Layer" class="s1" d="M16.62 466.76c-5.11-15.29 3.62-32.26 14.88-42.83.96-.88 1.93-1.75 2.92-2.61.99-.85 1.98-1.7 2.99-2.52 1.01-.83 2.03-1.64 3.07-2.43 1.03-.8 2.08-1.58 3.14-2.34 10.79 9.83 20.2 21.75 29.94 32.83 17.5 19.9 37.29 37.99 60.25 50.36 31.19 16.79 66.63 22.26 101.34 27.49 95.05 14.32 191.03 28.68 286.76 20.81 31.12-2.56 62.63-7.64 90.65-22.06 19.43-9.99 37.09-25.05 48.85-43.86a166.448 166.448 0 01-1.08 8.97c-.22 1.49-.45 2.98-.71 4.46-.26 1.48-.53 2.96-.82 4.44-11.91 56.96-67.93 91.13-120.89 94.93-52.96 3.8-104.73-15.16-156.52-27.91-111.38-27.43-228.91-27.05-335.37-72.37-11.99-5.1-24.96-12.08-29.4-25.36"/></g></g></g><g id="Layer" opacity=".2"><g id="Layer"><g id="Clip-Path" clip-path="url(#cp10)"><g id="Layer"><path id="Layer" class="s3" d="M675.11 169.19c-20.5-.13-41.57-5.35-57.72-18.58-13-10.65-19.5-32.76-22.81-49.71-.55-2.8-.9-5.87.39-8.38 1.49-2.91 4.76-4.25 7.84-4.96 14.17-3.25 28.89 2.23 41.48 9.79 12.58 7.56 23.99 17.28 37.13 23.72 14.66 7.19 30.88 10 46.88 12.53 15.88 2.5 18.83 12.78 6.37 21.14-12.63 8.48-45.16 14.54-59.54 14.45"/></g></g></g></g><g id="Layer" opacity=".4"><g id="Layer"><g id="Clip-Path" clip-path="url(#cp11)"><g id="Layer"><path id="Layer" class="s4" d="M80.61 19.31C80.61 8.65 88.85 0 99.02 0s18.41 8.64 18.41 19.31c0 10.66-8.24 19.31-18.41 19.31s-18.41-8.65-18.41-19.31"/></g></g></g></g><g id="Layer" opacity=".6"><g id="Layer"><g id="Clip-Path" clip-path="url(#cp12)"><g id="Layer"><path id="Layer" class="s4" d="M760.71 421.89c6.69 0 12.12 5.69 12.12 12.71 0 7.02-5.43 12.71-12.12 12.71-6.7 0-12.12-5.69-12.12-12.71 0-7.02 5.43-12.71 12.12-12.71z"/></g></g></g></g><path id="Layer" class="s4" d="M703.21 319.71c-.01-.46.07-.91.23-1.33.16-.42.41-.81.72-1.14.31-.33.69-.59 1.11-.78.42-.18.86-.28 1.32-.3 1.36 0 2.58.81 3.11 2.05a3.4 3.4 0 01-.66 3.67c-.94.98-2.37 1.31-3.63.84a3.377 3.377 0 01-2.2-3.01M480.76 502.02c-.01-.52.08-1.05.27-1.54s.47-.94.84-1.32a4.004 4.004 0 012.8-1.24c1.56 0 2.98.93 3.59 2.37.62 1.44.32 3.1-.76 4.24a3.921 3.921 0 01-4.19.97 3.912 3.912 0 01-2.54-3.48"/></g></g></g></g></g></g></g></svg>