<svg xmlns="http://www.w3.org/2000/svg" width="932.549" height="610.373"><defs><clipPath id="a"><path fill="none" d="M0 0h810.549v592.895H0z"/></clipPath><clipPath id="b"><path fill="none" d="M0 0h810.55v592.898H0z"/></clipPath><clipPath id="c"><path fill="none" d="M0 0h156.983v105.933H0z"/></clipPath><clipPath id="d"><path fill="none" d="M0 0h69.881v116.582H0z"/></clipPath><clipPath id="e"><path d="M479.442 20.4c33.609 8.636 58.948 38.676 79.439 69.256 17.737 26.466 34.089 53.123 56.021 75.693 23.318 23.983 42.033 19.3 72.637 14.466a137.227 137.227 0 0184.768 14.157c11.659 6.1 22.924 14.244 29.889 26.2.191.328.381.659.563.994 7.767 14.035 8.892 31.534 6.974 47.879-7 59.557-50.488 106.991-98.837 134.764-12.91 7.415-26.838 14.253-35.7 26.975-5.775 8.286-8.7 17.93-10.477 28.146-1.615 9.281-2.285 19.029-3.3 28.66a176.081 176.081 0 01-2.611 17.871c-11.914 56.955-67.931 91.136-120.887 94.927q-6.913.5-13.793.493h-.405c-48.027-.044-95.172-16.792-142.323-28.4-111.388-27.431-228.911-27.045-335.377-72.363-11.988-5.1-24.963-12.078-29.4-25.363-5.109-15.288 3.623-32.264 14.879-42.83a133.047 133.047 0 0112.118-9.9c20.144-14.848 43.666-27.37 45.969-52.719.853-9.4-1.74-18.766-4.974-27.516a171.933 171.933 0 00-29.47-51.007C36.191 268.247 10.7 249.79 2.617 220.39A76.14 76.14 0 010 200.358v-.44a105.181 105.181 0 014.574-29.49c11.239-37.781 40.934-67.716 75.469-78.659a94.726 94.726 0 0126.132-4.463c36.422-.954 70.468 17.812 104.57 31.937s73.633 23.51 105.891 4.858c24.707-14.284 40.012-42.1 59.658-63.929C394.285 40.181 417.9 24.811 442.7 19.758a86.3 86.3 0 0117.3-1.791 77.9 77.9 0 0119.442 2.433" transform="translate(0 -17.967)" fill="none"/></clipPath><clipPath id="f"><path fill="none" d="M0 0h664.713v509.118H0z"/></clipPath><clipPath id="g"><path fill="none" d="M0 0h360.059v203.203H0z"/></clipPath><clipPath id="h"><path fill="none" d="M0 0h646.289v178.864H0z"/></clipPath><clipPath id="i"><path fill="none" d="M0 0h148.298v82.591H0z"/></clipPath><clipPath id="j"><path fill="none" d="M0 0h36.83v38.619H0z"/></clipPath><clipPath id="k"><path fill="none" d="M0 0h24.244v25.427H0z"/></clipPath></defs><g clip-path="url(#a)" transform="translate(.002)"><g clip-path="url(#b)" transform="translate(-.002 -.002)"><g clip-path="url(#c)" transform="translate(165.312 2.39)" opacity=".32"><path d="M10.225 61.122c-7.407-9.048-13.59-21.926-8.17-32.389 2.435-4.7 6.811-7.934 11.186-10.723 42-26.775 146.352-32.2 143.692 44.191-2.73 78.4-117.65 34.417-146.708-1.078" fill="#f2dce4"/></g><g clip-path="url(#d)" transform="translate(8.853 291.549)" opacity=".79"><path d="M69.863 55.355c-.879 24.088-15.355 47.093-36.127 57.412-9.048 4.494-21.083 6.137-28.07-1.383-3.227-3.473-4.753-8.341-5.35-13.15a42.471 42.471 0 015.069-25.839c3.938-6.968 9.823-12.619 13.32-19.841C26.222 37.029 2.846-1.623 25.871.054c21.591 1.57 44.733 34.964 43.992 55.3" fill="#4388ba"/></g></g><g clip-path="url(#e)" transform="translate(-.002 9.976)"><path d="M1089.584 290.761L404.79-425.399l-682.464 717.773 684.794 716.161z" fill="#44caa5"/></g><g clip-path="url(#b)" transform="translate(-.002 -.002)"><g clip-path="url(#f)" transform="translate(.002 83.78)" opacity=".5"><path d="M84.612 250.019c3.234 8.75 5.827 18.116 4.974 27.515-2.792 30.721-36.747 42.6-58.086 62.622-11.256 10.565-19.988 27.542-14.88 42.83 4.438 13.285 17.413 20.264 29.4 25.362 106.467 45.319 223.99 44.932 335.374 72.366 51.792 12.754 103.565 31.706 156.522 27.91s108.973-37.971 120.887-94.927c3.151-15.065 3.278-31.42 5.91-46.531-19.175 9.567-38.176 20.005-56.432 26.507a792.355 792.355 0 01-271.171 45.836 769.445 769.445 0 01-156.019-17.08c-20.568-4.427-43.873-12.178-51.727-32.605-10.624-27.638 13.85-54.762 26.764-81.306 24-49.318 2.658-117.157-44.609-141.816-11.611-6.057-24.491-9.848-34.648-18.307-18.482-15.4-23.673-42.59-23.339-67.344.372-27.71 6.611-56.447 23.629-77.646Q78.57 1.655 80.04 0C45.505 10.943 15.811 40.877 4.572 78.659c-4.789 16.1-6.416 33.758-1.957 49.963 8.087 29.4 33.574 47.856 52.527 70.39a171.929 171.929 0 0129.47 51.007" fill="#4388ba"/></g><g clip-path="url(#g)" transform="translate(442.699 9.979)" opacity=".18"><path d="M0 1.789c31.227 10.393 59.506 30.162 74.767 60.06 13.542 26.526 15.936 58.867 33.206 82.89 14.509 20.178 37.587 31.575 60.709 38.692a241.425 241.425 0 0068.433 10.684c32.418.336 64.979-5.784 97.163.672 5.589 1.122 15.17 4.844 25.785 8.413a35.464 35.464 0 00-.563-.994c-6.966-11.959-18.23-20.105-29.889-26.2a137.231 137.231 0 00-84.768-14.157c-30.6 4.835-49.319 9.517-72.637-14.466-21.932-22.571-38.284-49.227-56.021-75.693-20.49-30.58-45.83-60.62-79.438-69.256A81.231 81.231 0 00.004 1.789" fill="#d3659b"/></g><g clip-path="url(#h)" transform="translate(15.127 414.033)" opacity=".79"><path d="M1.496 52.732c4.437 13.285 17.413 20.264 29.4 25.363 106.466 45.318 223.99 44.932 335.374 72.365 51.791 12.754 103.565 31.706 156.521 27.91s108.973-37.971 120.887-94.927a176.194 176.194 0 002.61-17.871c-11.763 18.811-29.426 33.867-48.852 43.861-28.019 14.416-59.532 19.5-90.647 22.057-95.729 7.869-191.71-6.493-286.76-20.813-34.708-5.231-70.148-10.7-101.34-27.493C95.722 70.82 75.937 52.727 58.434 32.826c-9.741-11.074-19.153-23-29.942-32.827a133.059 133.059 0 00-12.117 9.9C5.119 20.465-3.614 37.441 1.495 52.729" fill="#4388ba"/></g><g clip-path="url(#i)" transform="translate(594.081 86.605)" opacity=".18"><path d="M81.028 82.59c-20.495-.128-41.569-5.346-57.72-18.577-13-10.652-19.5-32.761-22.815-49.713-.547-2.8-.9-5.868.387-8.385C2.373 3.006 5.638 1.664 8.715.957 22.882-2.295 37.609 3.185 50.19 10.75s23.989 17.282 37.127 23.722c14.663 7.187 30.876 10 46.881 12.526 15.877 2.5 18.829 12.776 6.366 21.139-12.633 8.478-45.162 14.543-59.536 14.453" fill="#d3659b"/></g><g clip-path="url(#j)" transform="translate(80.603 .002)" opacity=".42"><path d="M.003 19.308c0 10.665 8.244 19.31 18.412 19.31s18.413-8.645 18.413-19.31S28.585.002 18.416.002.004 8.647.004 19.312" fill="#5c5c99"/></g><g clip-path="url(#k)" transform="translate(748.59 421.894)" opacity=".61"><path d="M0 12.713c0 7.021 5.427 12.713 12.122 12.713s12.122-5.692 12.122-12.713S18.817 0 12.122 0 0 5.692 0 12.713" fill="#5c5c99"/></g><path d="M703.213 319.712a3.387 3.387 0 103.383-3.548 3.468 3.468 0 00-3.383 3.548M480.759 502.019a3.908 3.908 0 103.9-4.094 4 4 0 00-3.9 4.094" fill="#5c5c99"/></g></g></svg>