<svg xmlns="http://www.w3.org/2000/svg" width="810.549" height="592.895"><defs><clipPath id="a"><path fill="none" d="M0 0h810.549v592.895H0z"/></clipPath><clipPath id="b"><path fill="none" d="M0 0h810.55v592.898H0z"/></clipPath><clipPath id="c"><path fill="none" d="M0 0h156.983v105.933H0z"/></clipPath><clipPath id="d"><path fill="none" d="M0 0h69.881v116.582H0z"/></clipPath><clipPath id="e"><path d="M331.109 20.4c-33.609 8.639-58.948 38.678-79.439 69.258-17.737 26.466-34.089 53.123-56.021 75.693-23.318 23.983-42.033 19.3-72.637 14.466a137.227 137.227 0 00-84.768 14.158c-11.659 6.1-22.924 14.244-29.889 26.2-.191.328-.381.659-.563.994C.025 235.206-1.1 252.7.818 269.051c7 59.557 50.488 106.991 98.837 134.764 12.91 7.415 26.838 14.253 35.7 26.975 5.775 8.286 8.7 17.93 10.477 28.146 1.615 9.281 2.285 19.029 3.3 28.66a176.081 176.081 0 002.611 17.871c11.914 56.955 67.931 91.136 120.887 94.927q6.913.5 13.793.493h.405c48.027-.044 95.172-16.792 142.323-28.4 111.384-27.433 228.907-27.047 335.374-72.366 11.988-5.1 24.963-12.078 29.4-25.363 5.109-15.288-3.623-32.264-14.879-42.83a133.052 133.052 0 00-12.118-9.9c-20.144-14.848-43.666-27.37-45.969-52.719-.853-9.4 1.74-18.766 4.974-27.516a171.931 171.931 0 0129.47-51.007c18.953-22.535 44.44-40.991 52.528-70.391a76.141 76.141 0 002.617-20.032v-.44a105.181 105.181 0 00-4.573-29.49c-11.239-37.781-40.934-67.716-75.469-78.659a94.724 94.724 0 00-26.132-4.463c-36.422-.954-70.468 17.812-104.57 31.937s-73.633 23.51-105.891 4.858C469.209 109.818 453.9 82 434.258 60.173c-17.992-19.992-41.609-35.361-66.407-40.415a86.3 86.3 0 00-17.3-1.791 77.9 77.9 0 00-19.442 2.433" transform="translate(0 -17.967)" fill="none"/></clipPath><clipPath id="f"><path fill="none" d="M0 0h664.713v509.118H0z"/></clipPath><clipPath id="g"><path fill="none" d="M0 0h360.059v203.203H0z"/></clipPath><clipPath id="h"><path fill="none" d="M0 0h646.289v178.864H0z"/></clipPath><clipPath id="i"><path fill="none" d="M0 0h148.298v82.591H0z"/></clipPath><clipPath id="j"><path fill="none" d="M0 0h36.83v38.619H0z"/></clipPath><clipPath id="k"><path fill="none" d="M0 0h24.244v25.427H0z"/></clipPath></defs><g clip-path="url(#a)"><g clip-path="url(#b)" transform="translate(0 -.002)"><g clip-path="url(#c)" transform="translate(488.255 2.39)" opacity=".32"><path d="M146.759 61.122c7.407-9.048 13.59-21.926 8.17-32.389-2.435-4.7-6.811-7.934-11.186-10.723C101.743-8.765-2.609-14.19.051 62.201c2.73 78.4 117.65 34.417 146.708-1.078" fill="#f2dce4"/></g><g clip-path="url(#d)" transform="translate(731.816 291.549)" opacity=".79"><path d="M.019 55.355c.879 24.088 15.355 47.093 36.127 57.412 9.048 4.494 21.083 6.137 28.07-1.383 3.227-3.473 4.753-8.341 5.35-13.15a42.471 42.471 0 00-5.069-25.839c-3.938-6.968-9.823-12.619-13.32-19.841C43.66 37.029 67.036-1.623 44.011.054 22.42 1.624-.722 35.018.019 55.354" fill="#4388ba"/></g></g><g clip-path="url(#e)" transform="translate(0 9.976)"><path d="M-279.012 290.524l684.794-716.161 682.463 717.773-684.793 716.162z" fill="#44caa5"/></g><g clip-path="url(#b)" transform="translate(0 -.002)"><g clip-path="url(#f)" transform="translate(145.835 83.78)" opacity=".5"><path d="M580.101 250.019c-3.234 8.75-5.827 18.116-4.974 27.515 2.792 30.721 36.747 42.6 58.086 62.622 11.256 10.565 19.988 27.542 14.88 42.83-4.438 13.285-17.412 20.264-29.4 25.362-106.467 45.319-223.99 44.932-335.374 72.366-51.792 12.755-103.566 31.706-156.522 27.91S17.827 470.653 5.91 413.698c-3.151-15.065-3.278-31.42-5.91-46.531 19.175 9.567 38.176 20.005 56.432 26.507a792.355 792.355 0 00271.171 45.835 769.444 769.444 0 00156.024-17.08c20.568-4.427 43.873-12.178 51.727-32.605 10.624-27.638-13.85-54.762-26.764-81.306-24-49.318-2.658-117.157 44.609-141.816 11.611-6.057 24.491-9.848 34.648-18.307 18.482-15.4 23.673-42.59 23.339-67.344-.372-27.71-6.611-56.447-23.629-77.646q-1.409-1.75-2.879-3.405c34.535 10.943 64.229 40.877 75.468 78.659 4.789 16.1 6.416 33.758 1.957 49.963-8.087 29.4-33.574 47.856-52.528 70.39a171.929 171.929 0 00-29.47 51.007" fill="#4388ba"/></g><g clip-path="url(#g)" transform="translate(7.792 9.98)" opacity=".18"><path d="M360.059 1.789c-31.227 10.393-59.506 30.162-74.767 60.06-13.542 26.526-15.936 58.867-33.206 82.89-14.504 20.178-37.586 31.575-60.704 38.692a241.425 241.425 0 01-68.433 10.684c-32.418.336-64.979-5.784-97.163.672-5.589 1.122-15.17 4.844-25.785 8.413.182-.336.372-.667.563-.994 6.966-11.959 18.23-20.105 29.889-26.2a137.231 137.231 0 0184.768-14.157c30.6 4.835 49.319 9.517 72.637-14.466 21.932-22.571 38.284-49.227 56.021-75.693 20.49-30.58 45.83-60.62 79.438-69.256a81.231 81.231 0 0136.743-.645" fill="#d3659b"/></g><g clip-path="url(#h)" transform="translate(149.135 414.033)" opacity=".79"><path d="M644.795 52.732c-4.437 13.285-17.412 20.264-29.4 25.363-106.466 45.318-223.99 44.932-335.374 72.365-51.791 12.754-103.565 31.706-156.521 27.91S14.525 140.399 2.61 83.444A176.194 176.194 0 010 65.573c11.763 18.811 29.426 33.867 48.852 43.861 28.019 14.416 59.532 19.5 90.647 22.057 95.729 7.869 191.71-6.493 286.76-20.813 34.708-5.231 70.148-10.7 101.34-27.493 22.967-12.364 42.752-30.457 60.255-50.358 9.741-11.074 19.153-23 29.942-32.827a133.054 133.054 0 0112.117 9.9c11.256 10.566 19.989 27.542 14.88 42.83" fill="#4388ba"/></g><g clip-path="url(#i)" transform="translate(68.171 86.605)" opacity=".18"><path d="M67.267 82.59c20.495-.128 41.569-5.346 57.72-18.577 13-10.652 19.5-32.761 22.815-49.713.547-2.8.9-5.868-.387-8.385-1.493-2.909-4.758-4.251-7.835-4.958-14.167-3.252-28.894 2.228-41.475 9.793S74.116 28.032 60.978 34.472c-14.663 7.187-30.876 10-46.881 12.526-15.877 2.5-18.829 12.776-6.366 21.139C20.364 76.615 52.893 82.68 67.267 82.59" fill="#d3659b"/></g><g clip-path="url(#j)" transform="translate(693.117 .002)" opacity=".42"><path d="M36.827 19.308c0 10.665-8.244 19.31-18.412 19.31S.002 29.973.002 19.308 8.248.002 18.415.002s18.412 8.645 18.412 19.31" fill="#5c5c99"/></g><g clip-path="url(#k)" transform="translate(37.716 421.894)" opacity=".61"><path d="M24.244 12.713c0 7.021-5.427 12.713-12.122 12.713S0 19.734 0 12.713 5.427 0 12.122 0s12.122 5.692 12.122 12.713" fill="#5c5c99"/></g><path d="M107.337 319.712a3.387 3.387 0 11-3.383-3.548 3.468 3.468 0 013.383 3.548m222.455 182.307a3.908 3.908 0 11-3.9-4.094 4 4 0 013.9 4.094" fill="#5c5c99"/></g></g></svg>