<svg version="1.2" baseProfile="tiny-ps" xmlns="http://www.w3.org/2000/svg" width="813" height="584"><defs><clipPath clipPathUnits="userSpaceOnUse" id="cp1"><path d="M332.47 2.43c1.59-.41 3.19-.76 4.8-1.07 1.61-.31 3.23-.56 4.85-.76 1.63-.2 3.26-.36 4.89-.46a80.492 80.492 0 019.27-.03c1.45.08 2.9.19 4.35.34 1.45.15 2.89.34 4.32.56 1.44.22 2.87.48 4.29.78 24.82 5.06 48.46 20.44 66.46 40.45 19.66 21.84 34.52-1.99 59.24 12.31C527.22 73.22 565.97 88 600.1 73.86c34.13-14.14 69.48-5.42 105.93-4.47 2.22.06 4.43.21 6.64.42 2.21.22 4.41.52 6.59.89 2.19.37 4.36.82 6.52 1.35 2.16.53 4.29 1.13 6.4 1.8 34.56 10.95 64.28 40.91 75.53 78.72a105.678 105.678 0 013.34 14.6c.38 2.47.68 4.95.88 7.44.21 2.49.32 4.98.35 7.48v.44c.01 1.69-.05 3.38-.15 5.07a76.733 76.733 0 01-1.31 10.04c-.33 1.66-.71 3.3-1.15 4.94-8.09 29.42-33.6 47.89-52.57 70.45a171.119 171.119 0 00-16.95 24.25 172.18 172.18 0 00-6.85 13.13 175.78 175.78 0 00-5.7 13.67c-3.24 8.76-7.89 15.05-13.11 27.68-10.34 25.66-8.46 38.49-3.17 61.15 5.28 14.67.6 3.15 6.76 18.25 6.46 17.94 9.6 25.6 6.07 43.64-2.55 15.71-15.63 26.5-27.63 31.6-100.61 28.93-154.48 21.11-265.95 48.56-47.19 11.62-94.37 28.38-142.44 28.43h-.4c-4.59 0-9.19-.16-13.8-.49-53-3.79-140.99 41.32-152.91-15.68-1.22-5.82-151.71 39.16-152.34 33.11-1.01-9.64-59.58-75.62-61.2-84.91-1.78-10.22-21.81-78.38-27.59-86.67-8.87-12.73 50.64-36.04 37.72-43.46-48.39-27.79 58.08-58.1 51.07-117.7-1.92-16.36-48.21-23.78-40.43-37.83.18-.34 9.38-26.84 9.57-27.17 6.97-11.97-6.27-21.33 5.4-27.43C-30.57 161.45-71.42 67.22-42.7 71.75c30.63 4.84 120.18 6.8 143.52-17.2 21.95-22.59 134.39 43.69 152.14 17.2 20.5-30.6 45.86-60.67 79.5-69.31"/></clipPath><clipPath clipPathUnits="userSpaceOnUse" id="cp2"><path d="M1.1-9.98h811.2v593.37H1.1V-9.98z"/></clipPath><clipPath clipPathUnits="userSpaceOnUse" id="cp3"><path d="M1.1-9.99h811.21v593.38H1.1V-9.99z"/></clipPath><clipPath clipPathUnits="userSpaceOnUse" id="cp4"><path d="M489.75-7.59h157.11V98.43H489.75V-7.59z"/></clipPath><clipPath clipPathUnits="userSpaceOnUse" id="cp5"><path d="M332.47 2.43c1.59-.41 3.19-.76 4.8-1.07 1.61-.31 3.23-.56 4.85-.76 1.63-.2 3.26-.36 4.89-.46a80.492 80.492 0 019.27-.03c1.45.08 2.9.19 4.35.34 1.45.15 2.89.34 4.32.56 1.44.22 2.87.48 4.29.78 24.82 5.06 48.45 20.44 66.46 40.45 19.66 21.84 34.98 49.68 59.71 63.98 32.28 18.67 71.85 9.28 105.98-4.86 34.13-14.14 68.2-32.92 104.65-31.96 2.22.06 4.43.21 6.64.42 2.21.22 4.41.52 6.59.89 2.19.37 4.36.82 6.52 1.35 2.16.53 4.29 1.13 6.4 1.8 34.56 10.95 64.28 40.91 75.53 78.72a105.678 105.678 0 013.34 14.6c.38 2.47.68 4.95.88 7.44.21 2.49.32 4.98.35 7.48v.44c.01 1.69-.05 3.38-.15 5.07a76.733 76.733 0 01-1.31 10.04c-.33 1.66-.71 3.3-1.15 4.94-8.09 29.42-33.6 47.89-52.57 70.45a171.119 171.119 0 00-16.95 24.25 172.18 172.18 0 00-6.85 13.13 175.78 175.78 0 00-5.7 13.67c-3.24 8.76-5.83 18.13-4.98 27.54 2.31 25.37 25.85 37.9 46.01 52.76 1.06.77 2.1 1.55 3.14 2.34 1.04.8 2.06 1.61 3.07 2.43 1.01.83 2.01 1.67 3 2.52.99.86 1.96 1.73 2.92 2.61 11.26 10.57 20 27.56 14.89 42.87-4.44 13.3-17.42 20.28-29.42 25.38-106.55 45.36-224.17 44.97-335.64 72.42-47.19 11.62-94.37 28.38-142.44 28.43h-.4c-4.59 0-9.19-.16-13.8-.49-53-3.79-109.06-38-120.99-95-.29-1.48-.57-2.96-.83-4.44-.26-1.49-.49-2.97-.71-4.46a166.216 166.216 0 01-1.08-8.97c-1.01-9.64-1.68-19.39-3.3-28.68-1.78-10.22-4.7-19.88-10.49-28.17-8.87-12.74-22.81-19.58-35.73-27-48.39-27.8-91.91-75.27-98.92-134.87-1.92-16.36-.79-33.87 6.98-47.92.18-.34.37-.67.56-1 6.97-11.97 18.25-20.12 29.91-26.22 6.46-3.39 13.17-6.27 20.09-8.6 6.91-2.33 14-4.1 21.19-5.3 7.19-1.2 14.47-1.83 21.77-1.87 7.29-.05 14.58.49 21.79 1.6 30.63 4.84 49.36 9.52 72.7-14.48 21.95-22.59 38.32-49.27 56.07-75.75 20.5-30.6 45.86-60.67 79.5-69.31"/></clipPath><clipPath clipPathUnits="userSpaceOnUse" id="cp6"><path d="M1.1-9.99h811.21v593.38H1.1V-9.99z"/></clipPath><clipPath clipPathUnits="userSpaceOnUse" id="cp7"><path d="M147.05 73.86H812.3v509.53H147.05V73.86z"/></clipPath><clipPath clipPathUnits="userSpaceOnUse" id="cp8"><path d="M8.89 0h360.35v203.37H8.89V0z"/></clipPath><clipPath clipPathUnits="userSpaceOnUse" id="cp9"><path d="M150.35 404.38h646.81v179.01H150.35V404.38z"/></clipPath><clipPath clipPathUnits="userSpaceOnUse" id="cp10"><path d="M69.32 76.69h148.42v82.66H69.32V76.69z"/></clipPath><clipPath clipPathUnits="userSpaceOnUse" id="cp11"><path d="M694.77-9.98h36.86v38.65h-36.86V-9.98z"/></clipPath><clipPath clipPathUnits="userSpaceOnUse" id="cp12"><path d="M38.84 412.25H63.1v25.45H38.84v-25.45z"/></clipPath></defs><style>.s2{fill:#4388ba}.s3{fill:#d3659b}.s4{fill:#5c5c99}</style><g id="Clip-Path" clip-path="url(#cp1)"><g id="Layer"><g id="Layer"><g id="Clip-Path" clip-path="url(#cp2)"><g id="Layer"><g id="Layer"><g id="Clip-Path" clip-path="url(#cp3)"><g id="Layer"><g id="Layer" opacity=".3"><g id="Clip-Path" clip-path="url(#cp4)"><g id="Layer"><path id="Layer" d="M489.8 54.66c-2.66-76.45 101.77-71.02 143.8-44.23 4.38 2.79 8.76 6.03 11.2 10.73 5.42 10.47-.76 23.36-8.18 32.41-29.08 35.52-144.09 79.54-146.83 1.08z" fill="#f2dce4"/></g></g></g></g></g></g><g id="Layer"><g id="Clip-Path" clip-path="url(#cp5)"><g id="Layer"><path id="Layer" d="M-278.14 290.76l685.35-716.74 683.01 718.35-685.35 716.74-683.01-718.35z" fill="#44caa5"/></g></g></g><g id="Layer"><g id="Clip-Path" clip-path="url(#cp6)"><g id="Layer"><g id="Layer" opacity=".5"><g id="Clip-Path" clip-path="url(#cp7)"><g id="Layer"><path id="Layer" class="s2" d="M727.62 324.08c-3.24 8.76-5.83 18.13-4.98 27.54 2.79 30.75 36.78 42.64 58.13 62.67 11.26 10.57 20 27.56 14.89 42.87-4.44 13.3-17.43 20.28-29.42 25.38-106.55 45.36-224.17 44.97-335.64 72.42-51.83 12.76-103.65 31.73-156.65 27.93-53-3.8-109.06-38-120.99-95-3.15-15.08-3.28-31.45-5.92-46.57 19.19 9.58 38.21 20.02 56.48 26.53a792.602 792.602 0 00133.69 34.8 792.573 792.573 0 00137.7 11.07c13.11-.09 26.22-.52 39.31-1.27 13.09-.76 26.16-1.85 39.2-3.28 13.04-1.43 26.03-3.19 38.98-5.28a766.89 766.89 0 0038.66-7.26c20.59-4.43 43.91-12.19 51.77-32.63 10.63-27.66-13.86-54.81-26.78-81.37-24.02-49.36-2.66-117.25 44.64-141.93 11.62-6.06 24.51-9.86 34.68-18.32 18.5-15.41 23.69-42.62 23.36-67.4-.37-27.73-6.62-56.49-23.65-77.71-.94-1.17-1.9-2.3-2.88-3.41 34.56 10.95 64.28 40.91 75.53 78.72 4.79 16.11 6.42 33.79 1.96 50-8.09 29.42-33.6 47.89-52.57 70.45-3.17 3.79-6.17 7.71-9 11.76s-5.48 8.22-7.95 12.49a172.18 172.18 0 00-6.85 13.13c-2.09 4.47-3.99 9.03-5.69 13.67"/></g></g></g><g id="Layer" opacity=".2"><g id="Clip-Path" clip-path="url(#cp8)"><g id="Layer"><path id="Layer" class="s3" d="M369.24 1.79c-31.25 10.4-59.55 30.19-74.83 60.11-13.55 26.55-15.95 58.91-33.23 82.96-14.52 20.19-37.62 31.6-60.75 38.72-5.54 1.71-11.14 3.21-16.79 4.52-5.65 1.3-11.34 2.4-17.07 3.3-5.73.89-11.49 1.58-17.26 2.06-5.78.48-11.57.75-17.37.82-32.44.34-65.03-5.79-97.24.67-5.59 1.12-15.18 4.85-25.81 8.42.18-.34.37-.67.56-1 6.97-11.97 18.25-20.12 29.91-26.22 6.46-3.39 13.17-6.27 20.09-8.6 6.91-2.33 14-4.1 21.19-5.3 7.19-1.2 14.47-1.83 21.77-1.87 7.29-.05 14.58.49 21.79 1.6 30.63 4.84 49.36 9.52 72.7-14.48 21.95-22.59 38.31-49.27 56.07-75.75 20.5-30.6 45.86-60.66 79.5-69.31 3-.75 6.04-1.33 9.11-1.74 3.07-.41 6.15-.64 9.24-.69 3.09-.05 6.18.07 9.26.37s6.14.77 9.16 1.42"/></g></g></g><g id="Layer" opacity=".8"><g id="Clip-Path" clip-path="url(#cp9)"><g id="Layer"><path id="Layer" class="s2" d="M795.67 457.16c-4.44 13.3-17.43 20.28-29.42 25.38-106.55 45.36-224.17 44.97-335.64 72.42-51.83 12.76-103.65 31.73-156.65 27.93-53-3.8-109.06-38-120.99-95-.29-1.48-.57-2.96-.82-4.44-.26-1.49-.49-2.97-.71-4.46a166.216 166.216 0 01-1.08-8.97c11.77 18.83 29.45 33.89 48.89 43.9 28.04 14.43 59.58 19.52 90.72 22.08 95.81 7.88 191.87-6.5 286.99-20.83 34.74-5.24 70.2-10.71 101.42-27.51 22.98-12.37 42.79-30.48 60.3-50.4 9.75-11.08 19.17-23.02 29.97-32.85 1.06.77 2.1 1.55 3.14 2.34 1.04.8 2.06 1.61 3.07 2.43 1.01.83 2.01 1.67 3 2.52.99.86 1.96 1.73 2.92 2.61 11.27 10.57 20 27.56 14.89 42.87"/></g></g></g><g id="Layer" opacity=".2"><g id="Layer"><g id="Clip-Path" clip-path="url(#cp10)"><g id="Layer"><path id="Layer" class="s3" d="M136.64 159.34c-14.38.09-46.94-5.98-59.58-14.47-12.47-8.37-9.52-18.65 6.37-21.16 16.02-2.53 32.24-5.34 46.92-12.54 13.15-6.44 24.56-16.17 37.16-23.74 12.59-7.57 27.33-13.06 41.51-9.8 3.08.71 6.35 2.05 7.84 4.96 1.29 2.52.94 5.59.39 8.39-3.32 16.96-9.82 39.09-22.83 49.75-16.17 13.24-37.26 18.46-57.77 18.59"/></g></g></g></g><g id="Layer" opacity=".4"><g id="Layer"><g id="Clip-Path" clip-path="url(#cp11)"><g id="Layer"><path id="Layer" class="s4" d="M731.63 9.34c0 10.67-8.25 19.33-18.43 19.33s-18.43-8.65-18.43-19.33c0-10.68 8.25-19.32 18.43-19.32s18.43 8.65 18.43 19.33"/></g></g></g></g><g id="Layer" opacity=".6"><g id="Layer"><g id="Clip-Path" clip-path="url(#cp12)"><g id="Layer"><path id="Layer" class="s4" d="M63.11 424.97c0 7.03-5.43 12.72-12.13 12.72-6.7 0-12.13-5.7-12.13-12.72 0-7.02 5.43-12.72 12.13-12.72 6.7 0 12.13 5.7 12.13 12.72z"/></g></g></g></g><path id="Layer" class="s4" d="M108.52 309.98a3.377 3.377 0 01-2.2 3.01c-1.27.47-2.7.14-3.64-.84s-1.2-2.43-.66-3.67a3.383 3.383 0 013.11-2.06c.46.01.9.11 1.32.3.42.18.79.45 1.11.78.31.33.56.72.73 1.14.16.42.24.88.23 1.33m222.63 182.47a3.939 3.939 0 01-2.54 3.48c-1.47.55-3.12.17-4.2-.97a3.903 3.903 0 01-.76-4.24 3.913 3.913 0 013.6-2.37c.53.01 1.04.13 1.52.34.48.21.91.52 1.28.9.36.38.65.83.84 1.32.19.49.28 1.01.27 1.54"/></g></g></g></g></g></g></g></g></svg>