<svg xmlns="http://www.w3.org/2000/svg" width="933.302" height="600.882"><defs><clipPath id="a"><path d="M453.473 20.4c-33.636 8.643-59 38.707-79.5 69.312-17.751 26.488-130.188-39.791-152.138-17.2-23.337 24-112.887 22.042-143.516 17.2-28.722-4.539 12.131 89.691-14.078 103.405-11.668 6.1 1.569 15.464-5.4 27.432-.191.328-9.391 26.834-9.573 27.17-7.778 14.051 38.508 21.468 40.432 37.827 7.01 59.6-99.459 89.905-51.071 117.7 12.917 7.422-46.596 30.728-37.722 43.461 5.78 8.293 25.806 76.445 27.587 86.669 1.616 9.289 60.188 75.272 61.2 84.91.628 6.057 151.124-38.921 152.342-33.105 11.923 57 99.913 11.888 152.912 15.683q6.919.5 13.8.493h.405c48.066-.044 95.249-16.806 142.438-28.426 111.474-27.456 165.344-19.637 265.953-48.563 12-5.1 25.085-15.89 27.633-31.6 3.528-18.046.384-25.7-6.074-43.642-6.16-15.1-1.479-3.584-6.761-18.253-5.291-22.659-7.177-35.484 3.167-61.148 5.219-12.632 9.869-18.922 13.106-27.679A172.071 172.071 0 01878.113 291c18.969-22.553 44.476-41.024 52.57-70.448a76.2 76.2 0 002.619-20.048v-.441a105.268 105.268 0 00-4.577-29.514c-11.248-37.811-40.967-67.771-75.53-78.722a94.8 94.8 0 00-26.153-4.466c-36.452-.955-71.8-9.67-105.932 4.466s-72.877-.648-105.16-19.315c-24.727-14.3-39.582 9.537-59.244-12.307C538.7 40.2 515.064 24.817 490.245 19.759a86.373 86.373 0 00-17.315-1.792 77.959 77.959 0 00-19.457 2.433" transform="translate(846.698 2534.662)" fill="#fff"/></clipPath><clipPath id="b"><path fill="none" d="M0 0h811.203v593.374H0z"/></clipPath><clipPath id="c"><path fill="none" d="M0 0h811.205v593.376H0z"/></clipPath><clipPath id="d"><path fill="none" d="M0 0h157.11v106.018H0z"/></clipPath><clipPath id="e"><path d="M331.376 20.4c-33.636 8.643-59 38.707-79.5 69.312-17.751 26.488-34.117 53.166-56.066 75.755-23.337 24-42.067 19.317-72.7 14.477a137.338 137.338 0 00-84.836 14.169c-11.668 6.1-22.942 14.255-29.914 26.224-.191.328-.381.659-.563 1C.025 235.382-1.1 252.894.818 269.253c7.01 59.6 50.529 107.077 98.917 134.873 12.921 7.421 26.86 14.265 35.733 27 5.78 8.293 8.7 17.945 10.485 28.168 1.616 9.289 2.287 19.044 3.3 28.683a176.228 176.228 0 002.613 17.885c11.923 57 67.985 91.209 120.985 95q6.919.5 13.8.493h.405c48.066-.044 95.249-16.806 142.438-28.426 111.474-27.456 229.092-27.069 335.645-72.424 12-5.1 24.983-12.087 29.423-25.383 5.113-15.3-3.626-32.29-14.891-42.865a133.162 133.162 0 00-12.127-9.91c-20.16-14.86-43.7-27.392-46.006-52.762-.854-9.406 1.741-18.781 4.978-27.538a172.072 172.072 0 0129.5-51.047c18.969-22.553 44.476-41.024 52.57-70.448a76.2 76.2 0 002.619-20.048v-.441a105.266 105.266 0 00-4.577-29.514c-11.248-37.811-40.967-67.771-75.53-78.722a94.8 94.8 0 00-26.153-4.466c-36.451-.955-70.525 17.826-104.654 31.963s-73.693 23.529-105.976 4.862c-24.727-14.3-40.044-42.137-59.706-63.981C416.6 40.2 392.966 24.817 368.148 19.759a86.373 86.373 0 00-17.315-1.792 77.959 77.959 0 00-19.457 2.433" transform="translate(0 -17.967)" fill="none"/></clipPath><clipPath id="f"><path fill="none" d="M0 0h665.25v509.529H0z"/></clipPath><clipPath id="g"><path fill="none" d="M0 0h360.35v203.367H0z"/></clipPath><clipPath id="h"><path fill="none" d="M0 0h646.811v179.009H0z"/></clipPath><clipPath id="i"><path fill="none" d="M0 0h148.418v82.658H0z"/></clipPath><clipPath id="j"><path fill="none" d="M0 0h36.86v38.65H0z"/></clipPath><clipPath id="k"><path fill="none" d="M0 0h24.264v25.447H0z"/></clipPath></defs><g transform="translate(-846.698 -2552.629)" clip-path="url(#a)"><g clip-path="url(#b)" transform="translate(968.795 2542.645)"><g clip-path="url(#c)" transform="translate(0 -.002)"><g clip-path="url(#d)" transform="translate(488.649 2.392)" opacity=".32"><path d="M146.877 61.172c7.413-9.056 13.6-21.944 8.177-32.415-2.437-4.7-6.816-7.94-11.2-10.732C101.825-8.772-2.612-14.199.051 62.251c2.732 78.46 117.745 34.445 146.826-1.079" fill="#f2dce4"/></g></g><g clip-path="url(#e)" transform="translate(0 9.984)"><path d="M-279.24 290.756L406.11-425.98l683.014 718.354-685.349 716.736z" fill="#44caa5"/></g><g clip-path="url(#c)" transform="translate(0 -.002)"><g clip-path="url(#f)" transform="translate(145.953 83.847)" opacity=".5"><path d="M580.569 250.221c-3.237 8.757-5.832 18.131-4.978 27.537 2.794 30.746 36.777 42.637 58.133 62.673 11.265 10.574 20 27.564 14.892 42.865-4.442 13.3-17.427 20.28-29.424 25.383-106.553 45.355-224.171 44.968-335.645 72.424-51.834 12.765-103.649 31.732-156.648 27.933s-109.061-38-120.985-95c-3.154-15.078-3.28-31.445-5.915-46.568 19.19 9.575 38.207 20.021 56.478 26.529a792.994 792.994 0 00271.39 45.867 770.061 770.061 0 00156.145-17.094c20.585-4.431 43.909-12.187 51.768-32.631 10.633-27.66-13.861-54.807-26.785-81.371-24.017-49.358-2.66-117.251 44.645-141.931 11.621-6.062 24.511-9.856 34.676-18.321 18.5-15.409 23.692-42.624 23.358-67.4-.372-27.733-6.616-56.492-23.648-77.709q-1.411-1.751-2.881-3.408c34.563 10.952 64.281 40.91 75.529 78.722 4.792 16.109 6.422 33.785 1.959 50-8.094 29.423-33.6 47.895-52.57 70.447a172.067 172.067 0 00-29.493 51.049" fill="#4388ba"/></g><g clip-path="url(#g)" transform="translate(7.798 9.988)" opacity=".18"><path d="M360.35 1.79c-31.252 10.4-59.554 30.187-74.828 60.109-13.553 26.547-15.949 58.915-33.232 82.957-14.519 20.194-37.617 31.6-60.755 38.725a241.62 241.62 0 01-68.488 10.692c-32.444.337-65.031-5.789-97.241.673-5.593 1.122-15.182 4.848-25.806 8.42.182-.336.372-.668.563-1 6.971-11.969 18.245-20.121 29.914-26.224a137.341 137.341 0 0184.836-14.168c30.629 4.839 49.359 9.525 72.7-14.477 21.95-22.589 38.314-49.267 56.066-75.755 20.503-30.6 45.863-60.664 79.503-69.311a81.3 81.3 0 0136.773-.645" fill="#d3659b"/></g><g clip-path="url(#h)" transform="translate(149.255 414.368)" opacity=".79"><path d="M645.314 52.775c-4.441 13.3-17.427 20.28-29.424 25.383-106.552 45.355-224.171 44.968-335.645 72.424-51.833 12.764-103.65 31.732-156.65 27.933s-109.061-38-120.985-95A176.369 176.369 0 01-.003 65.63c11.772 18.826 29.45 33.894 48.891 43.9 28.042 14.427 59.58 19.517 90.72 22.075 95.807 7.875 191.865-6.5 286.991-20.83 34.737-5.235 70.2-10.711 101.422-27.515 22.985-12.374 42.787-30.482 60.3-50.4C598.07 21.777 607.49 9.839 618.287.006a133.18 133.18 0 0112.127 9.91c11.265 10.574 20 27.564 14.892 42.865" fill="#4388ba"/></g><g clip-path="url(#i)" transform="translate(68.226 86.675)" opacity=".18"><path d="M67.321 82.656c20.511-.128 41.6-5.35 57.767-18.592 13.014-10.66 19.516-32.788 22.833-49.753.548-2.8.905-5.873-.387-8.392-1.494-2.911-4.762-4.255-7.841-4.962-14.179-3.255-28.917 2.23-41.509 9.8s-24.008 17.3-37.157 23.741c-14.675 7.193-30.9 10.01-46.919 12.536C-1.782 49.54-4.736 59.82 7.737 68.19c12.643 8.484 45.2 14.555 59.584 14.465" fill="#d3659b"/></g><g clip-path="url(#j)" transform="translate(693.677 .002)" opacity=".42"><path d="M36.857 19.324c0 10.674-8.25 19.326-18.427 19.326S.002 30.002.002 19.324 8.248.002 18.43.002s18.427 8.652 18.427 19.326" fill="#5c5c99"/></g><g clip-path="url(#k)" transform="translate(37.746 422.234)" opacity=".61"><path d="M24.263 12.724c0 7.027-5.432 12.724-12.132 12.724S0 19.748 0 12.724 5.431 0 12.131 0s12.132 5.7 12.132 12.724" fill="#5c5c99"/></g><path d="M107.423 319.97a3.389 3.389 0 11-3.386-3.551 3.471 3.471 0 013.386 3.551m222.635 182.451a3.911 3.911 0 11-3.906-4.1 4.005 4.005 0 013.906 4.1" fill="#5c5c99"/></g></g></g></svg>