<svg xmlns="http://www.w3.org/2000/svg" width="253.535" height="77.754"><defs><clipPath id="a"><path fill="none" d="M0 0h253.535v77.754H0z"/></clipPath></defs><g clip-path="url(#a)" fill="#44caa5"><path d="M52.358 23.718a1.036 1.036 0 00.4.971c.283.2.85.04 1.012.405.121.566-1.052.971-1.376 1.012a6.691 6.691 0 01-3.682-.405c-.607-.283-1.012-.485-1.133-1.133-.122-.567.323-1.093.606-1.457a3.392 3.392 0 013.075-1.255 1.517 1.517 0 011.052.607 2.623 2.623 0 01.04 1.255"/><path d="M72.549 0h-59.48A13.091 13.091 0 000 13.074v51.607a13.091 13.091 0 0013.069 13.073h59.48a13.091 13.091 0 0013.069-13.073V13.074A13.091 13.091 0 0072.549 0m-.283 33.756a4.261 4.261 0 01-1.618 3.319l-5.705 3.683a4.341 4.341 0 01-2.954.891l-17.116-.891s-.769.008-1.736-.008c-.328 0-.679-.012-1.028-.025-.069-.239-.137-.477-.214-.72-.894-2.971-2.137-6.436-3.658-10.459a107.166 107.166 0 01-3.763-13.235l-.033.021.033.02a27.553 27.553 0 001.3 13.438c.857 2.283 1.922 5.383 2.776 8.54.186.676.36 1.36.518 2.036.287 1.206.526 2.4.7 3.529.643 4.181.364 7.553-2.011 7.953-5.1.85-12.219-2.347-16.347-5.585-1.072-.85-2-1.486-2.8-2.028-2.286-1.538-3.5-2.3-3.831-5.055-.446-3.724 1.861-9.633 1.861-9.633a27.848 27.848 0 011.287-3.015 25.988 25.988 0 012.355-3.906c1.274-1.729 4.3-5.416 7.66-7.152a9.14 9.14 0 011.743-.7 4.1 4.1 0 011.715-.364h14.524a8.008 8.008 0 016.029 2.55c1.7 1.862 2.59 4.776 4.9 6.031 1.659.891 3.682.688 5.5.728 1.982.081 3.965.243 5.947.365a6.3 6.3 0 01.85.162 4.584 4.584 0 00-.81.728c-.283.365-.728.891-.606 1.457.121.648.526.85 1.133 1.134a6.36 6.36 0 003.358.445c0 .122 0 .2.04.243zm-33.18 34.122s-17.519 3.36-28.04-14.978l5.154-5.911.186.125a33 33 0 012.752 1.943c5.826 4.614 12.422 6.517 16.994 6.517a10.1 10.1 0 002.225-.2 5.9 5.9 0 004.208-2.955c1.125-1.931 1.182-4.63.4-8.33a44.47 44.47 0 001.829.033l1.829.1c-1.886 7.5-7.534 23.662-7.534 23.662m82.297-38.135a6.97 6.97 0 012.509 1.659 7.836 7.836 0 011.659 2.631 9.938 9.938 0 01.607 3.44 8.478 8.478 0 01-.971 4.21 6.98 6.98 0 01-2.671 2.752 7.547 7.547 0 01-3.843.971 6.229 6.229 0 01-2.266-.4 5.967 5.967 0 01-1.9-1.093 4.839 4.839 0 01-1.335-1.659h-.04v9.427h-2.792V37.399a8.78 8.78 0 011.05-4.412 7.234 7.234 0 012.832-2.793 8.3 8.3 0 014.047-.971 7.654 7.654 0 013.115.526m-5.786 2.509a5.361 5.361 0 00-1.861 1.943 7.041 7.041 0 000 6.071 4.91 4.91 0 004.45 2.672 4.921 4.921 0 004.451-2.712 6.777 6.777 0 000-5.99 5.475 5.475 0 00-1.861-1.984 5.355 5.355 0 00-5.179 0m21.402 13.113a7.931 7.931 0 01-7.041-4.007 8.476 8.476 0 010-8.217 7.94 7.94 0 012.873-2.915 8.33 8.33 0 014.168-1.092 8.17 8.17 0 014.208 1.092 7.644 7.644 0 012.873 2.915 8.476 8.476 0 010 8.217 7.642 7.642 0 01-2.873 2.914 7.8 7.8 0 01-4.208 1.093m.04-2.388a4.728 4.728 0 002.752-.769 5.1 5.1 0 001.861-2.064 6.6 6.6 0 000-5.788 5.06 5.06 0 00-4.613-2.834 4.94 4.94 0 00-2.792.769 4.833 4.833 0 00-1.861 2.064 6.6 6.6 0 000 5.788 5.369 5.369 0 001.861 2.064 4.77 4.77 0 002.792.769m13.111-15.905a1.911 1.911 0 01-1.861-1.862 1.882 1.882 0 113.763-.041 1.928 1.928 0 01-.567 1.377 2.05 2.05 0 01-1.335.526m-1.457 2.469h2.832v15.46h-2.832zm7.243 15.457v-8.941a6.663 6.663 0 01.931-3.6 6.391 6.391 0 012.549-2.429 8.4 8.4 0 017.485 0 6.589 6.589 0 013.48 6.031v8.939h-2.792v-8.9a4.364 4.364 0 00-2.225-4.007 4.56 4.56 0 00-4.33 0 4.045 4.045 0 00-1.618 1.578 4.269 4.269 0 00-.607 2.429v8.9zm17.075-15.458h10.763v2.388h-10.763zm7.041 15.462a4.291 4.291 0 01-3.237-1.174 4.421 4.421 0 01-1.173-3.2V25.66h2.791v14.773a2.069 2.069 0 00.567 1.578 2.042 2.042 0 001.578.607h3.116v2.388zm14.445.002a9.731 9.731 0 01-4.532-.972 7.4 7.4 0 01-3.075-2.711 7.228 7.228 0 01-1.092-4.088 8.58 8.58 0 01.93-4.128 7.588 7.588 0 012.63-2.915 6.935 6.935 0 013.884-1.052 7.665 7.665 0 014.006 1.012 6.424 6.424 0 012.387 2.793 9.178 9.178 0 01.809 3.886v.688a3.54 3.54 0 01-.081.648h-11.571a4.844 4.844 0 00.931 2.429 5 5 0 002.023 1.5 6.856 6.856 0 002.711.486h4.046v2.388h-4.006zm-5.746-8.743h8.821a6.193 6.193 0 00-.121-1.214 5.714 5.714 0 00-.405-1.255 4.452 4.452 0 00-.809-1.134 3.19 3.19 0 00-1.254-.809 5.1 5.1 0 00-1.74-.324 4.17 4.17 0 00-1.862.405 4.573 4.573 0 00-1.375 1.092 5.3 5.3 0 00-.891 1.538 6.062 6.062 0 00-.364 1.7m15.092 8.742v-11.09a4.063 4.063 0 014.41-4.412h3.2v2.388h-2.67a2.125 2.125 0 00-1.578.567 2.159 2.159 0 00-.566 1.619v10.888zm11.083.324a2.006 2.006 0 010-4.007 2.048 2.048 0 012.023 1.983 1.831 1.831 0 01-.283 1.012 2.09 2.09 0 01-.728.728 2.233 2.233 0 01-1.012.283m7.733 5.829v-2.387h7.566a2.283 2.283 0 001.74-.648 2.4 2.4 0 00.607-1.78v-4.25h-.081a7.433 7.433 0 01-1.375 1.578 5.955 5.955 0 01-1.9 1.092 6.881 6.881 0 01-2.387.405 7.2 7.2 0 01-3.844-1.012 7.1 7.1 0 01-2.63-2.834 9.532 9.532 0 010-8.257 6.876 6.876 0 012.711-2.873 9.14 9.14 0 018.5-.04 6.971 6.971 0 012.752 2.873 8.784 8.784 0 01.971 4.29v9.148a4.627 4.627 0 01-1.254 3.4 4.466 4.466 0 01-3.4 1.255zm4.693-8.378a4.954 4.954 0 004.532-2.712 6.611 6.611 0 000-5.707 5.2 5.2 0 00-7.243-2.023 4.681 4.681 0 00-1.74 2.023 6 6 0 00-.606 2.915 6.677 6.677 0 00.606 2.793 5.292 5.292 0 001.74 2.024 4.937 4.937 0 002.711.688m20.234 2.227a9.728 9.728 0 01-4.531-.972 7.4 7.4 0 01-3.075-2.711 7.228 7.228 0 01-1.092-4.088 8.588 8.588 0 01.93-4.128 7.588 7.588 0 012.63-2.915 6.935 6.935 0 013.884-1.052 7.663 7.663 0 014.006 1.012 6.424 6.424 0 012.387 2.793 9.836 9.836 0 01.809 3.886v.688a3.542 3.542 0 01-.081.648h-11.535a4.851 4.851 0 00.931 2.429 5 5 0 002.023 1.5 6.852 6.852 0 002.711.486h4.047v2.388h-4.044zm-5.786-8.743h8.821a6.141 6.141 0 00-.122-1.214 4.537 4.537 0 00-.4-1.255 4.452 4.452 0 00-.809-1.134 3.712 3.712 0 00-1.254-.809 5.1 5.1 0 00-1.74-.324 4.17 4.17 0 00-1.862.405 4.572 4.572 0 00-1.375 1.092 5.3 5.3 0 00-.891 1.538 7.466 7.466 0 00-.364 1.7"/></g></svg>