<svg xmlns="http://www.w3.org/2000/svg" width="217.562" height="163.126"><defs><clipPath id="b"><path transform="translate(-.298 -.298)" fill="none" d="M0 0h55v55H0z"/></clipPath><clipPath id="c"><path fill="#44caa5" d="M0 0h154.129v154.126H0z"/></clipPath><filter id="a" x="21.319" y=".121" width="145" height="145" filterUnits="userSpaceOnUse"><feOffset dy="10"/><feGaussianBlur stdDeviation="5" result="b"/><feFlood flood-opacity=".161"/><feComposite operator="in" in2="b"/><feComposite in="SourceGraphic"/></filter></defs><path d="M191.704 116.514l-101.062 4.968 51.716-93.303z" fill="#8b8b8b" opacity=".302"/><g transform="translate(.001 .003)" filter="url(#a)"><circle cx="57.5" cy="57.5" r="57.5" transform="translate(36.32 5.12)" fill="#f1f3f4"/></g><g transform="translate(66.618 35.42)" clip-path="url(#b)"><path d="M15.24 53.828c-3.609 0-7.107.12-10.591-.046a4.509 4.509 0 01-4.026-4.084c-.145-3.451-.04-6.913-.04-10.526 1.266 0 2.512.035 3.755-.007a6.846 6.846 0 006.78-6.051 6.743 6.743 0 00-5.257-7.489 20.506 20.506 0 00-3.525-.186c-.561-.02-1.124 0-1.833 0v-1.358c0-2.629-.013-5.257 0-7.886.023-3.486 2.082-5.54 5.548-5.549 2.819-.008 5.638 0 8.457 0 .371 0 .742-.03 1.231-.052 0-1.2-.014-2.329 0-3.461.059-3.886 2.696-6.627 6.359-6.635 3.729-.008 6.365 2.757 6.383 6.7.005 1.1 0 2.2 0 3.443h1.859c2.7 0 5.41-.017 8.114.005a5.111 5.111 0 015.3 5.241c.041 2.895.01 5.79.01 8.686v1.361c1.28 0 2.449-.009 3.619 0a6.347 6.347 0 11.263 12.691c-1.245.061-2.5.01-3.882.01v2.037c0 2.629.021 5.258-.006 7.886a5.076 5.076 0 01-5.311 5.329c-3.115.027-6.229.006-9.482.006 0-1.246.007-2.377 0-3.508-.032-4.147-2.9-7.133-6.848-7.138a6.846 6.846 0 00-6.885 7.127c-.009 1.133 0 2.266 0 3.451" fill="gray"/></g><g clip-path="url(#c)" fill="#44caa5"><path d="M93.519 121.22A60.61 60.61 0 0150.661 17.752a60.61 60.61 0 0185.715 85.715 60.214 60.214 0 01-42.858 17.752m0-116.794a56.184 56.184 0 00-39.728 95.913 56.185 56.185 0 1079.457-79.457A55.816 55.816 0 0093.519 4.425"/><path d="M23.303 127.696l27.357-27.357 3.13 3.13-27.357 27.357z"/><path d="M3.23 150.899a3.474 3.474 0 010-4.913l18.882-18.877a3.474 3.474 0 114.913 4.913L8.143 150.899a3.474 3.474 0 01-4.913 0"/><path d="M5.687 154.124a5.685 5.685 0 01-4.021-9.7l18.877-18.877a5.687 5.687 0 118.042 8.042L9.708 152.463a5.67 5.67 0 01-4.021 1.661m18.877-25.82a1.257 1.257 0 00-.892.369L4.795 147.55a1.261 1.261 0 001.784 1.784l18.877-18.877a1.26 1.26 0 00-.892-2.152"/></g></svg>